<?xml version="1.0" encoding="UTF-8"?><svg xmlns="http://www.w3.org/2000/svg" xmlns:xlink="http://www.w3.org/1999/xlink" clip-rule="evenodd" fill-rule="evenodd" height="526.0" image-rendering="optimizeQuality" preserveAspectRatio="xMidYMid meet" shape-rendering="geometricPrecision" text-rendering="geometricPrecision" version="1.0" viewBox="-1.0 68.0 666.0 526.0" width="666.0" zoomAndPan="magnify"><defs><linearGradient gradientUnits="objectBoundingBox" id="a" x1="0%" x2="100%" xlink:actuate="onLoad" xlink:show="other" xlink:type="simple" xmlns:xlink="http://www.w3.org/1999/xlink" y1="50%" y2="50%"><stop offset="0" stop-color="#14b4e5"/><stop offset="1" stop-color="#4a6bcc"/></linearGradient><linearGradient gradientUnits="userSpaceOnUse" id="s" x1="112.412" x2="251.609" xlink:actuate="onLoad" xlink:href="#a" xlink:show="other" xlink:type="simple" xmlns:xlink="http://www.w3.org/1999/xlink" y1="267.364" y2="267.364"/><linearGradient gradientUnits="userSpaceOnUse" id="u" x1="327.213" x2="367.217" xlink:actuate="onLoad" xlink:href="#a" xlink:show="other" xlink:type="simple" xmlns:xlink="http://www.w3.org/1999/xlink" y1="575.733" y2="575.733"/><linearGradient gradientUnits="userSpaceOnUse" id="b" x1="600.597" x2="48.471" xlink:actuate="onLoad" xlink:href="#a" xlink:show="other" xlink:type="simple" xmlns:xlink="http://www.w3.org/1999/xlink" y1="317.699" y2="317.699"/><linearGradient gradientUnits="userSpaceOnUse" id="i" x1="366.167" x2="590.038" xlink:actuate="onLoad" xlink:href="#a" xlink:show="other" xlink:type="simple" xmlns:xlink="http://www.w3.org/1999/xlink" y1="407.578" y2="407.578"/><linearGradient gradientUnits="userSpaceOnUse" id="j" x1="325.471" x2="570.666" xlink:actuate="onLoad" xlink:href="#a" xlink:show="other" xlink:type="simple" xmlns:xlink="http://www.w3.org/1999/xlink" y1="405.488" y2="405.488"/><linearGradient gradientUnits="userSpaceOnUse" id="q" x1="102.045" x2="350.785" xlink:actuate="onLoad" xlink:href="#a" xlink:show="other" xlink:type="simple" xmlns:xlink="http://www.w3.org/1999/xlink" y1="316.922" y2="316.922"/><linearGradient gradientUnits="userSpaceOnUse" id="k" x1="205.508" x2="527.102" xlink:actuate="onLoad" xlink:href="#a" xlink:show="other" xlink:type="simple" xmlns:xlink="http://www.w3.org/1999/xlink" y1="423.922" y2="423.922"/><linearGradient gradientUnits="userSpaceOnUse" id="d" x1="484.426" x2="623.983" xlink:actuate="onLoad" xlink:href="#a" xlink:show="other" xlink:type="simple" xmlns:xlink="http://www.w3.org/1999/xlink" y1="486.703" y2="486.703"/><linearGradient gradientUnits="userSpaceOnUse" id="p" x1="104.691" x2="376.035" xlink:actuate="onLoad" xlink:href="#a" xlink:show="other" xlink:type="simple" xmlns:xlink="http://www.w3.org/1999/xlink" y1="333.912" y2="333.912"/><linearGradient gradientUnits="userSpaceOnUse" id="l" x1="172.048" x2="504.573" xlink:actuate="onLoad" xlink:href="#a" xlink:show="other" xlink:type="simple" xmlns:xlink="http://www.w3.org/1999/xlink" y1="420.478" y2="420.478"/><linearGradient gradientUnits="userSpaceOnUse" id="c" x1="513.89" x2="611.957" xlink:actuate="onLoad" xlink:href="#a" xlink:show="other" xlink:type="simple" xmlns:xlink="http://www.w3.org/1999/xlink" y1="508.777" y2="508.777"/><linearGradient gradientUnits="userSpaceOnUse" id="t" x1="125.691" x2="651.529" xlink:actuate="onLoad" xlink:href="#a" xlink:show="other" xlink:type="simple" xmlns:xlink="http://www.w3.org/1999/xlink" y1="305.443" y2="305.443"/><linearGradient gradientUnits="userSpaceOnUse" id="f" x1="438.82" x2="626.1" xlink:actuate="onLoad" xlink:href="#a" xlink:show="other" xlink:type="simple" xmlns:xlink="http://www.w3.org/1999/xlink" y1="447.108" y2="447.108"/><linearGradient gradientUnits="userSpaceOnUse" id="r" x1="103.681" x2="290.615" xlink:actuate="onLoad" xlink:href="#a" xlink:show="other" xlink:type="simple" xmlns:xlink="http://www.w3.org/1999/xlink" y1="284.085" y2="284.085"/><linearGradient gradientUnits="userSpaceOnUse" id="n" x1="114.486" x2="419.96" xlink:actuate="onLoad" xlink:href="#a" xlink:show="other" xlink:type="simple" xmlns:xlink="http://www.w3.org/1999/xlink" y1="369.017" y2="369.017"/><linearGradient gradientUnits="userSpaceOnUse" id="h" x1="392.908" x2="606.486" xlink:actuate="onLoad" xlink:href="#a" xlink:show="other" xlink:type="simple" xmlns:xlink="http://www.w3.org/1999/xlink" y1="418.063" y2="418.063"/><linearGradient gradientUnits="userSpaceOnUse" id="m" x1="149.47" x2="482.471" xlink:actuate="onLoad" xlink:href="#a" xlink:show="other" xlink:type="simple" xmlns:xlink="http://www.w3.org/1999/xlink" y1="412.969" y2="412.969"/><linearGradient gradientUnits="userSpaceOnUse" id="g" x1="417.044" x2="618.913" xlink:actuate="onLoad" xlink:href="#a" xlink:show="other" xlink:type="simple" xmlns:xlink="http://www.w3.org/1999/xlink" y1="431.221" y2="431.221"/><linearGradient gradientUnits="userSpaceOnUse" id="o" x1="108.723" x2="398.907" xlink:actuate="onLoad" xlink:href="#a" xlink:show="other" xlink:type="simple" xmlns:xlink="http://www.w3.org/1999/xlink" y1="351.371" y2="351.371"/><linearGradient gradientUnits="userSpaceOnUse" id="e" x1="460.621" x2="627.37" xlink:actuate="onLoad" xlink:href="#a" xlink:show="other" xlink:type="simple" xmlns:xlink="http://www.w3.org/1999/xlink" y1="466.107" y2="466.107"/></defs><g><path d="M209 486c146,57 406,-44 391,-225 -37,-156 -103,-144 -217,-92 -25,15 -79,58 -100,51l-24 -7c-11,-4 -22,-11 -34,-15 -2,-1 -9,-5 -10,-5 -74,-35 -125,10 -149,72 -67,175 72,136 163,182 16,8 -42,30 -20,39z" fill="url(#b)"/><g><path d="M514 558c6,-1 12,-2 18,-4l71 -70c1,-3 3,-7 4,-10 2,-5 3,-10 5,-14l-98 98z" fill="url(#c)"/><path d="M484 555c5,1 9,2 13,3l123 -123c1,-7 3,-13 4,-19l-140 139z" fill="url(#d)"/><path d="M461 547c3,2 7,3 10,5l156 -156c0,-5 0,-10 0,-15l-166 166z" fill="url(#e)"/><path d="M439 537c3,2 6,3 9,4 0,0 1,0 1,1l177 -177c-1,-4 -1,-8 -3,-12l-184 184z" fill="url(#f)"/><path d="M417 527c4,2 7,3 10,5l192 -192c-2,-3 -3,-6 -5,-9l-197 196z" fill="url(#g)"/><path d="M393 519l11 4 202 -202c-2,-3 -4,-5 -7,-8l-206 206z" fill="url(#h)"/><path d="M366 514c5,1 9,1 13,2l211 -211c-3,-2 -6,-4 -9,-6l-215 215z" fill="url(#i)"/><path d="M325 523c8,-3 15,-6 23,-7l223 -223c-4,-2 -7,-4 -10,-5l-236 235z" fill="url(#j)"/><path d="M256 561c10,-5 20,-10 31,-16l262 -263c-3,-1 -6,-3 -10,-4l-283 283z" fill="url(#a)"/><path d="M206 579c6,-1 13,-3 21,-6l300 -300c-3,-2 -7,-3 -10,-5l-311 311z" fill="url(#k)"/><path d="M172 581c4,1 9,1 14,1l319 -319c-4,-1 -7,-3 -11,-4l-322 322z" fill="url(#l)"/><path d="M149 572c3,2 7,4 10,5l323 -323c-3,-2 -6,-3 -9,-5l-1 0 -323 323z" fill="url(#m)"/><path d="M134 556c2,3 4,5 6,8l321 -321c-3,-2 -6,-3 -10,-5l-317 318z" fill="url(#a)"/><path d="M432 227l-1 0 -308 308c1,4 3,7 4,10l313 -313c-2,-1 -5,-3 -8,-5z" fill="url(#a)"/><path d="M420 221c-3,-2 -7,-4 -10,-6l-296 296c2,4 3,8 4,12l302 -302z" fill="url(#n)"/><path d="M399 210c-4,-2 -7,-4 -10,-5l0 0 -280 280c0,4 1,9 2,13l288 -288z" fill="url(#o)"/><path d="M376 201c-4,-1 -8,-3 -11,-4l-260 260c0,5 1,9 1,13l270 -269z" fill="url(#p)"/><path d="M351 194c-4,-1 -9,-1 -13,-2l-236 236c0,2 0,5 1,7 0,2 0,5 0,7l248 -248z" fill="url(#q)"/><path d="M323 190c-5,0 -10,0 -15,0l-206 206c0,5 0,10 0,16l221 -222z" fill="url(#a)"/><path d="M291 191c-6,0 -12,1 -17,2l-167 167c-2,6 -3,11 -3,18l187 -187z" fill="url(#r)"/><path d="M252 198c-8,2 -16,5 -23,8l-108 107c-3,8 -6,16 -9,24l140 -139z" fill="url(#s)"/></g><path d="M321 147c15,-9 33,-18 43,-22 147,-57 301,49 287,229 -16,192 -90,167 -217,92 -25,-15 -50,-15 -70,-8l-24 7c-12,5 -22,11 -35,15 -2,1 -9,5 -9,5 -75,35 -126,-10 -150,-72 -66,-174 43,-179 134,-224 16,-8 24,-13 41,-22z" fill="url(#t)"/><path d="M342 564c1,-1 3,-2 3,-2 12,-4 23,4 22,17 -1,15 -7,13 -16,7 -2,-1 -4,-1 -6,0l-2 0c0,1 -1,1 -2,2 0,0 -1,0 -1,0 -6,3 -9,-1 -11,-6 -5,-13 3,-13 10,-17 1,0 2,-1 3,-1z" fill="url(#u)"/></g><path d="M0 0H700V700H0z" fill="none"/><g><g id="change1_1"><path d="M394 516L486 171 267 390z"/><path d="M479 164L134 256 260 383z"/><circle cx="215" cy="516" r="20"/><path d="M205 445L279 416 234 371z"/><circle cx="536" cy="315" r="30"/></g></g></svg>